<svg width="39" height="39" viewBox="0 0 39 39" fill="none" xmlns="http://www.w3.org/2000/svg">
<path d="M19.5 38C29.7173 38 38 29.7173 38 19.5C38 9.28273 29.7173 1 19.5 1M19.5 38C9.28273 38 1 29.7173 1 19.5C1 9.28273 9.28273 1 19.5 1M19.5 38C25.5256 38 30.4103 29.7173 30.4103 19.5C30.4103 9.28273 25.5256 1 19.5 1M19.5 38C13.4744 38 8.58974 29.7173 8.58974 19.5C8.58974 9.28273 13.4744 1 19.5 1M37.5256 19.5C37.5256 19.9481 37.2092 20.5025 36.3248 21.1047C35.4547 21.6972 34.1467 22.2553 32.4527 22.7331C30.7643 23.2093 28.7504 23.5896 26.5246 23.8496C24.2996 24.1095 21.9124 24.2436 19.5 24.2436C17.0876 24.2436 14.7004 24.1095 12.4754 23.8496C10.2496 23.5896 8.23566 23.2093 6.54729 22.7331C4.8533 22.2553 3.54529 21.6972 2.67521 21.1047C1.79079 20.5025 1.47436 19.9481 1.47436 19.5M34.6795 10.0128C34.6795 10.0735 34.6534 10.1801 34.507 10.3361C34.3586 10.4944 34.1128 10.6735 33.746 10.8613C33.0133 11.2365 31.9069 11.5921 30.4705 11.8967C29.0401 12.2002 27.3341 12.4424 25.4489 12.608C23.5646 12.7736 21.5429 12.859 19.5 12.859C17.4571 12.859 15.4354 12.7736 13.5511 12.608C11.6659 12.4424 9.95992 12.2002 8.52949 11.8967C7.09309 11.5921 5.98665 11.2365 5.25395 10.8613C4.88719 10.6735 4.64139 10.4944 4.49296 10.3361C4.34663 10.1801 4.32051 10.0735 4.32051 10.0128M34.5931 29.3374C34.4142 29.7089 33.9433 30.1414 33.0918 30.5762C32.2562 31.0028 31.1197 31.3985 29.7142 31.7348C26.9045 32.4072 23.2751 32.7818 19.5043 32.7821C15.7335 32.7823 12.1034 32.4084 9.29227 31.7364C7.886 31.4002 6.74867 31.0047 5.91208 30.5781C5.05959 30.1435 4.58756 29.7109 4.40766 29.339M19.5 1.47436V37.5256" stroke="black" stroke-linecap="round"/>
</svg>
