<svg width="42" height="42" viewBox="0 0 42 42" fill="none" xmlns="http://www.w3.org/2000/svg">
<g clip-path="url(#clip0_1_156)">
<path d="M1 6C1 4.34315 2.34315 3 4 3H8C9.65685 3 11 4.34315 11 6V36C11 38.7614 8.76142 41 6 41C3.23858 41 1 38.7614 1 36V6Z" fill="#F4F4F6" stroke="#3F2BFF" stroke-width="2"/>
<rect x="3" y="30" width="6" height="2" rx="1" fill="#3F2BFF"/>
<rect x="3" y="33" width="6" height="6" rx="3" fill="#3F2BFF"/>
<path d="M1 6C1 4.34315 2.34315 3 4 3H8C9.65685 3 11 4.34315 11 6V36C11 38.7614 8.76142 41 6 41C3.23858 41 1 38.7614 1 36V6Z" fill="#F4F4F6" stroke="#3F2BFF" stroke-width="2"/>
<rect x="3" y="30" width="6" height="2" rx="1" fill="#3F2BFF"/>
<rect x="3" y="33" width="6" height="6" rx="3" fill="#3F2BFF"/>
<path d="M1 6C1 4.34315 2.34315 3 4 3H8C9.65685 3 11 4.34315 11 6V36C11 38.7614 8.76142 41 6 41C3.23858 41 1 38.7614 1 36V6Z" fill="#F4F4F6" stroke="#3F2BFF" stroke-width="2"/>
<rect x="3" y="30" width="6" height="2" rx="1" fill="#3F2BFF"/>
<rect x="3" y="33" width="6" height="6" rx="3" fill="#3F2BFF"/>
<path d="M1 6C1 4.34315 2.34315 3 4 3H8C9.65685 3 11 4.34315 11 6V36C11 38.7614 8.76142 41 6 41C3.23858 41 1 38.7614 1 36V6Z" fill="#F4F4F6" stroke="#3F2BFF" stroke-width="2"/>
<rect x="3" y="30" width="6" height="2" rx="1" fill="#3F2BFF"/>
<rect x="3" y="33" width="6" height="6" rx="3" fill="#3F2BFF"/>
</g>
<defs>
<clipPath id="clip0_1_156">
<rect width="42" height="42" fill="white"/>
</clipPath>
</defs>
</svg>
