<svg width="39" height="39" viewBox="0 0 39 39" fill="none" xmlns="http://www.w3.org/2000/svg">
<path d="M18.0558 3.2471C18.7609 2.25097 20.2391 2.25097 20.9442 3.2471L26.1747 10.6359C26.5261 11.1323 27.0312 11.4992 27.6118 11.68L36.2554 14.3713C37.4206 14.7341 37.8774 16.1399 37.1479 17.1184L31.737 24.3762C31.3735 24.8637 31.1806 25.4574 31.1881 26.0656L31.2996 35.1177C31.3146 36.3381 30.1188 37.2069 28.9628 36.8155L20.3882 33.9122C19.8121 33.7171 19.1879 33.7171 18.6118 33.9122L10.0372 36.8155C8.8812 37.2069 7.68538 36.3381 7.70041 35.1177L7.81187 26.0656C7.81936 25.4574 7.62646 24.8637 7.26295 24.3762L1.85207 17.1184C1.1226 16.1399 1.57936 14.7341 2.74465 14.3713L11.3882 11.68C11.9689 11.4992 12.4739 11.1323 12.8253 10.6359L18.0558 3.2471Z" stroke="black"/>
</svg>
