<svg width="39" height="39" viewBox="0 0 39 39" fill="none" xmlns="http://www.w3.org/2000/svg">
<path fill-rule="evenodd" clip-rule="evenodd" d="M19.5 10.1273C24.7016 10.1273 28.8727 14.3475 28.8727 19.5C28.8727 24.7016 24.7016 28.8727 19.5 28.8727C14.3475 28.8727 10.1273 24.7016 10.1273 19.5C10.1273 14.3475 14.3475 10.1273 19.5 10.1273ZM23.8674 5.3183C24.7507 5.56366 25.634 5.95623 26.4682 6.39788C26.9589 6.64324 27.4987 6.54509 27.8912 6.20159L29.2653 4.92573C29.7069 4.53316 30.3448 4.48408 30.8355 4.87666C31.4735 5.3183 32.0623 5.85809 32.6021 6.39788C33.1419 6.98674 33.6817 7.5756 34.1233 8.16446C34.5159 8.65517 34.4668 9.34217 34.0743 9.78382L32.7984 11.1088C32.4549 11.5013 32.3568 12.0411 32.6512 12.5318C33.0928 13.366 33.4363 14.2493 33.7308 15.1817C33.878 15.6724 34.3196 16.0159 34.8594 16.0159L36.6751 16.1141C37.313 16.1141 37.8037 16.5557 37.8528 17.1936C37.9509 17.9297 38 18.7149 38 19.5C38 20.2851 37.9509 21.0703 37.8528 21.8554C37.8037 22.4443 37.313 22.8859 36.6751 22.935L34.8594 22.9841C34.3196 22.9841 33.878 23.3276 33.7308 23.8674C33.4363 24.7507 33.0928 25.634 32.6512 26.4682C32.3568 26.9589 32.4549 27.4987 32.7984 27.8912L34.0743 29.2653C34.4668 29.7069 34.5159 30.3448 34.1233 30.8355C33.6817 31.4735 33.1419 32.0623 32.6021 32.6021C32.0623 33.1419 31.4735 33.6817 30.8355 34.1233C30.3448 34.5159 29.7069 34.4668 29.2653 34.0743L27.8912 32.7984C27.4987 32.4549 26.9589 32.3568 26.4682 32.6512C25.634 33.0928 24.7507 33.4363 23.8674 33.7308C23.3276 33.878 22.9841 34.3196 22.9841 34.8594L22.935 36.6751C22.8859 37.313 22.4443 37.8037 21.8554 37.8528C21.0703 37.9509 20.2851 38 19.5 38C18.7149 38 17.9297 37.9509 17.1936 37.8528C16.5557 37.8037 16.1141 37.313 16.1141 36.6751L16.0159 34.8594C16.0159 34.3196 15.6724 33.878 15.1817 33.7308C14.2493 33.4363 13.366 33.0928 12.5318 32.6512C12.0411 32.3568 11.5013 32.4549 11.1088 32.7984L9.78382 34.0743C9.34217 34.4668 8.65517 34.5159 8.16446 34.1233C7.5756 33.6817 6.98674 33.1419 6.39788 32.6021C5.85809 32.0623 5.3183 31.4735 4.87666 30.8355C4.48408 30.3448 4.53316 29.7069 4.92573 29.2653L6.20159 27.8912C6.54509 27.4987 6.64324 26.9589 6.39788 26.4682C5.95623 25.634 5.56366 24.7507 5.3183 23.8674C5.12202 23.3276 4.68037 22.9841 4.14058 22.9841L2.32493 22.935C1.687 22.8859 1.19629 22.4443 1.14721 21.8554C1.04907 21.0703 1 20.2851 1 19.5C1 18.7149 1.04907 17.9297 1.14721 17.1936C1.19629 16.5557 1.687 16.1141 2.32493 16.1141L4.14058 16.0159C4.68037 16.0159 5.12202 15.6724 5.3183 15.1817C5.56366 14.2493 5.95623 13.366 6.39788 12.5318C6.64324 12.0411 6.54509 11.5013 6.20159 11.1088L4.92573 9.78382C4.53316 9.34217 4.48408 8.65517 4.87666 8.16446C5.3183 7.5756 5.85809 6.98674 6.39788 6.39788C6.98674 5.85809 7.5756 5.3183 8.16446 4.87666C8.65517 4.48408 9.34217 4.53316 9.78382 4.92573L11.1088 6.20159C11.5013 6.54509 12.0411 6.64324 12.5318 6.39788C13.366 5.95623 14.2493 5.56366 15.1817 5.3183C15.6724 5.12202 16.0159 4.68037 16.0159 4.14058L16.1141 2.32493C16.1141 1.687 16.5557 1.19629 17.1936 1.14721C17.9297 1.04907 18.7149 1 19.5 1C20.2851 1 21.0703 1.04907 21.8554 1.14721C22.4443 1.19629 22.8859 1.687 22.935 2.32493L22.9841 4.14058C22.9841 4.68037 23.3276 5.12202 23.8674 5.3183Z" stroke="black"/>
</svg>
