<svg width="39" height="39" viewBox="0 0 39 39" fill="none" xmlns="http://www.w3.org/2000/svg">
<rect x="1.5" y="5.5" width="36" height="32" rx="2.5" stroke="black"/>
<rect x="1.5" y="5.5" width="36" height="10" rx="2.5" stroke="black"/>
<path d="M5.5 32C5.5 31.7239 5.72386 31.5 6 31.5H9C9.27614 31.5 9.5 31.7239 9.5 32V33C9.5 33.2761 9.27614 33.5 9 33.5H6C5.72386 33.5 5.5 33.2761 5.5 33V32ZM13.5 32C13.5 31.7239 13.7239 31.5 14 31.5H17C17.2761 31.5 17.5 31.7239 17.5 32V33C17.5 33.2761 17.2761 33.5 17 33.5H14C13.7239 33.5 13.5 33.2761 13.5 33V32ZM21.5 32C21.5 31.7239 21.7239 31.5 22 31.5H25C25.2761 31.5 25.5 31.7239 25.5 32V33C25.5 33.2761 25.2761 33.5 25 33.5H22C21.7239 33.5 21.5 33.2761 21.5 33V32ZM29.5 32C29.5 31.7239 29.7239 31.5 30 31.5H33C33.2761 31.5 33.5 31.7239 33.5 32V33C33.5 33.2761 33.2761 33.5 33 33.5H30C29.7239 33.5 29.5 33.2761 29.5 33V32ZM5.5 26C5.5 25.7239 5.72386 25.5 6 25.5H9C9.27614 25.5 9.5 25.7239 9.5 26V27C9.5 27.2761 9.27614 27.5 9 27.5H6C5.72386 27.5 5.5 27.2761 5.5 27V26ZM13.5 26C13.5 25.7239 13.7239 25.5 14 25.5H17C17.2761 25.5 17.5 25.7239 17.5 26V27C17.5 27.2761 17.2761 27.5 17 27.5H14C13.7239 27.5 13.5 27.2761 13.5 27V26ZM21.5 26C21.5 25.7239 21.7239 25.5 22 25.5H25C25.2761 25.5 25.5 25.7239 25.5 26V27C25.5 27.2761 25.2761 27.5 25 27.5H22C21.7239 27.5 21.5 27.2761 21.5 27V26ZM29.5 26C29.5 25.7239 29.7239 25.5 30 25.5H33C33.2761 25.5 33.5 25.7239 33.5 26V27C33.5 27.2761 33.2761 27.5 33 27.5H30C29.7239 27.5 29.5 27.2761 29.5 27V26ZM5.5 20C5.5 19.7239 5.72386 19.5 6 19.5H9C9.27614 19.5 9.5 19.7239 9.5 20V21C9.5 21.2761 9.27614 21.5 9 21.5H6C5.72386 21.5 5.5 21.2761 5.5 21V20ZM13.5 20C13.5 19.7239 13.7239 19.5 14 19.5H17C17.2761 19.5 17.5 19.7239 17.5 20V21C17.5 21.2761 17.2761 21.5 17 21.5H14C13.7239 21.5 13.5 21.2761 13.5 21V20ZM21.5 20C21.5 19.7239 21.7239 19.5 22 19.5H25C25.2761 19.5 25.5 19.7239 25.5 20V21C25.5 21.2761 25.2761 21.5 25 21.5H22C21.7239 21.5 21.5 21.2761 21.5 21V20ZM29.5 20C29.5 19.7239 29.7239 19.5 30 19.5H33C33.2761 19.5 33.5 19.7239 33.5 20V21C33.5 21.2761 33.2761 21.5 33 21.5H30C29.7239 21.5 29.5 21.2761 29.5 21V20Z" stroke="black"/>
<rect x="9.5" y="0.5" width="4" height="10" rx="2" fill="#F4F4F6" stroke="#090909"/>
<rect x="25.5" y="0.5" width="4" height="10" rx="2" fill="#F4F4F6" stroke="#090909"/>
</svg>
