<svg width="42" height="42" viewBox="0 0 42 42" fill="none" xmlns="http://www.w3.org/2000/svg">
<rect x="0.5" y="0.5" width="41" height="41" stroke="#3F2BFF" stroke-dasharray="4 4"/>
<rect x="1" y="23" width="18" height="18" rx="1" stroke="#3F2BFF" stroke-width="2"/>
<path d="M24 7C24 6.44771 24.4477 6 25 6L35 6C35.5523 6 36 6.44772 36 7C36 7.55229 35.5523 8 35 8L25 8C24.4477 8 24 7.55228 24 7Z" fill="#3F2BFF"/>
<path d="M35 17.9999C34.4477 17.9999 34 17.5522 34 16.9999L34 6.99993C34 6.44764 34.4477 6 35 6C35.5523 6 36 6.44772 36 7L36 16.9999C36 17.5522 35.5523 17.9999 35 17.9999Z" fill="#3F2BFF"/>
<rect x="34.4767" y="6" width="2" height="23.317" rx="1" transform="rotate(45 34.4767 6)" fill="#3F2BFF"/>
</svg>
