<svg width="42" height="42" viewBox="0 0 42 42" fill="none" xmlns="http://www.w3.org/2000/svg">
<g clip-path="url(#clip0_1_152)">
<g clip-path="url(#clip1_1_152)">
<path d="M31.1145 37.2022L31.949 37.7532L31.1145 37.2022L29.7524 39.2652C29.3428 39.8856 28.4235 39.858 28.0518 39.2142L16.6699 19.5001L25.3301 14.5001L36.7121 34.2142C37.0838 34.858 36.648 35.6679 35.906 35.7124L33.4383 35.8605L33.4982 36.8587L33.4383 35.8605C32.4957 35.9171 31.6348 36.4142 31.1145 37.2022Z" fill="#F4F4F6" stroke="#3F2BFF" stroke-width="2"/>
</g>
<g clip-path="url(#clip2_1_152)">
<path d="M8.56182 35.8605L8.5019 36.8587L8.56182 35.8605L6.09412 35.7124C5.35208 35.6679 4.91632 34.858 5.28801 34.2142L16.67 14.5001L25.3302 19.5001L13.9483 39.2142C13.5766 39.858 12.6573 39.8856 12.2477 39.2652L10.8856 37.2022L10.0511 37.7532L10.8856 37.2022C10.3653 36.4142 9.50439 35.9171 8.56182 35.8605Z" fill="#F4F4F6" stroke="#3F2BFF" stroke-width="2"/>
</g>
<path d="M13.924 3.09166C14.2458 2.17477 15.293 1.74101 16.1688 2.16185L19.4276 3.72772C20.4215 4.20527 21.5785 4.20527 22.5724 3.72772L25.8312 2.16185C26.707 1.74101 27.7542 2.17477 28.076 3.09165L29.2731 6.50324C29.6382 7.54369 30.4563 8.36183 31.4968 8.72692L34.9083 9.92403C35.8252 10.2458 36.259 11.293 35.8382 12.1688L34.2723 15.4276C33.7947 16.4215 33.7947 17.5785 34.2723 18.5724L35.8382 21.8312C36.259 22.707 35.8252 23.7542 34.9083 24.076L31.4968 25.2731C30.4563 25.6382 29.6382 26.4563 29.2731 27.4968L28.076 30.9083C27.7542 31.8252 26.707 32.259 25.8312 31.8382L22.5724 30.2723C21.5785 29.7947 20.4215 29.7947 19.4276 30.2723L16.1688 31.8382C15.293 32.259 14.2458 31.8252 13.924 30.9083L12.7269 27.4968C12.3618 26.4563 11.5437 25.6382 10.5032 25.2731L10.1721 26.2167L10.5032 25.2731L7.09166 24.076C6.17477 23.7542 5.74101 22.707 6.16185 21.8312L7.72772 18.5724C8.20527 17.5785 8.20527 16.4215 7.72772 15.4276L6.16185 12.1688C5.74101 11.293 6.17477 10.2458 7.09165 9.92403L10.5032 8.72692C11.5437 8.36183 12.3618 7.54369 12.7269 6.50324L13.924 3.09166Z" fill="#F4F4F6" stroke="#3F2BFF" stroke-width="2"/>
<path d="M30.2857 17.0001C30.2857 22.1284 26.1284 26.2858 21 26.2858C15.8716 26.2858 11.7143 22.1284 11.7143 17.0001C11.7143 11.8717 15.8716 7.71436 21 7.71436C26.1284 7.71436 30.2857 11.8717 30.2857 17.0001Z" stroke="#3F2BFF" stroke-width="2"/>
<path d="M16.4285 16.9999C16.4285 16.3996 16.5467 15.8051 16.7764 15.2505C17.0062 14.6959 17.3429 14.1919 17.7674 13.7674C18.1919 13.3429 18.6959 13.0062 19.2505 12.7764C19.8051 12.5467 20.3996 12.4285 20.9999 12.4285" stroke="#3F2BFF" stroke-width="2" stroke-linecap="round"/>
</g>
<defs>
<clipPath id="clip0_1_152">
<rect width="42" height="42" fill="white"/>
</clipPath>
<clipPath id="clip1_1_152">
<rect width="12" height="50" fill="white" transform="translate(3.30383 -1.65063) rotate(-30)"/>
</clipPath>
<clipPath id="clip2_1_152">
<rect width="12" height="50" fill="white" transform="translate(28.304 -7.65063) rotate(30)"/>
</clipPath>
</defs>
</svg>
