<svg width="39" height="39" viewBox="0 0 39 39" fill="none" xmlns="http://www.w3.org/2000/svg">
<path d="M4.40789 25.7121C3.62895 26.1172 3.10965 26.5561 2.94737 26.7249H1.97368C1.97368 26.0497 1.87632 24.5979 1.48684 24.1928C1 23.6864 1 23.1799 1 22.1671C1 21.1542 2.46053 21.6606 3.43421 21.1542C4.40789 20.6477 4.40789 20.6477 3.92105 18.6221C3.43421 16.5964 4.40789 18.1157 5.38158 17.1028C6.35526 16.0899 5.38158 15.5835 5.86842 15.5835H8.30263C9.76316 15.5835 8.30263 14.5707 9.27632 14.5707C10.25 14.5707 9.76316 13.5578 10.7368 13.0514C11.7105 12.545 11.7105 13.5578 12.1974 14.5707C12.6842 15.5835 11.2237 16.5964 12.1974 16.5964C13.1711 16.5964 14.6316 17.1028 14.6316 17.6092C14.6316 18.1156 15.6053 19.1285 16.0921 18.1156C16.5789 17.1028 16.0921 17.1028 17.0658 17.1029C18.0395 17.1029 18.0395 17.1029 19.0132 17.1028C19.9868 17.1027 19.9868 16.0899 20.4737 15.0771C20.9605 14.0642 21.9342 15.0771 22.4211 16.0899C22.9079 17.1028 23.3947 16.5964 24.8553 17.1028C26.3158 17.6092 26.3158 16.5964 26.8026 15.5835C27.2895 14.5707 27.2895 16.0899 28.2632 15.0771C29.2368 14.0642 28.75 13.5578 29.7237 13.5578C30.6974 13.5578 30.6974 12.0385 30.6974 11.5321C30.6974 11.0257 31.1842 11.0257 31.6711 10.5193C32.1579 10.0128 32.1579 9 33.1316 9C34.1053 9 34.1053 10.0128 34.1053 11.0257C34.1053 12.0385 35.0789 11.5321 35.0789 12.0385C35.0789 12.545 35.5658 13.5578 35.5658 14.0642C35.5658 14.5707 35.0789 15.0771 35.0789 16.0899C35.0789 17.1028 35.0789 17.1028 36.0526 17.1028C37.0263 17.1028 36.5395 18.1157 37.0263 19.1285C37.5132 20.1412 38 20.1413 38 20.6477C38 21.1542 37.5132 21.6606 37.0263 21.6606C36.5395 21.6606 36.0526 21.6606 35.5658 20.1413C35.0789 18.6221 34.5921 19.1285 34.5921 18.1157C34.5921 17.3055 33.943 17.1029 33.6184 17.1029C33.4561 16.9341 33.0342 16.9003 32.6447 18.1157C32.1579 19.635 32.6447 19.1286 31.6711 19.635C30.6974 20.1414 31.6711 21.1542 30.6974 22.1671C29.7237 23.1799 30.6974 24.1928 31.1842 24.1928C31.6711 24.1928 32.6447 23.6864 34.1053 24.1928C35.2737 24.5979 36.5395 25.7121 37.0263 26.2185C36.2149 25.7121 34.4947 24.8005 34.1053 25.2056C33.6184 25.7121 34.5921 26.2185 34.5921 27.7378C34.5921 28.9532 34.2675 30.2699 34.1053 30.7763C33.7807 30.9451 33.0342 31.1814 32.6447 30.7763C32.1579 30.2699 32.1579 27.7378 30.6974 28.2442C29.2368 28.7506 29.7237 26.7249 28.75 26.2185C27.7763 25.7121 28.2632 29.257 27.2895 29.257C26.3158 29.257 25.8289 30.2699 24.8553 29.7635C23.8816 29.257 23.3947 30.2699 21.9342 29.257C20.4737 28.2442 20.9605 30.2699 19.9868 30.7763C19.0132 31.2827 19.9868 29.257 18.0395 30.2699C16.0921 31.2827 15.6053 29.7635 14.6316 27.7378C13.6579 25.7121 13.1711 25.7121 11.7105 25.2056C10.5421 24.8005 9.60088 26.3873 9.27632 27.2313C8.95175 26.8937 8.30263 26.0159 8.30263 25.2056C8.30263 24.1928 7.32895 23.1799 6.35526 23.1799C5.38158 23.1799 5.38158 25.2056 4.40789 25.7121Z" stroke="black" stroke-linecap="round" stroke-linejoin="round"/>
</svg>
