<svg width="40" height="40" viewBox="0 0 40 40" fill="none" xmlns="http://www.w3.org/2000/svg">
<rect y="38" width="40" height="2" rx="1" fill="#3F2BFF"/>
<rect y="21" width="17" height="2" rx="1" fill="#3F2BFF"/>
<rect x="4" y="25" width="4" height="2" rx="1" fill="#3F2BFF"/>
<rect x="10" y="25" width="4" height="2" rx="1" fill="#3F2BFF"/>
<rect x="4" y="28" width="4" height="2" rx="1" fill="#3F2BFF"/>
<rect x="10" y="28" width="4" height="2" rx="1" fill="#3F2BFF"/>
<rect x="4" y="31" width="10" height="2" rx="1" fill="#3F2BFF"/>
<rect x="14" y="16" width="26" height="2" rx="1" fill="#3F2BFF"/>
<rect x="25" y="19" width="14" height="2" rx="1" fill="#3F2BFF"/>
<rect x="25" y="35" width="14" height="2" rx="1" fill="#3F2BFF"/>
<rect x="25" y="23" width="14" height="2" rx="1" fill="#3F2BFF"/>
<rect x="25" y="27" width="14" height="2" rx="1" fill="#3F2BFF"/>
<rect x="25" y="31" width="14" height="2" rx="1" fill="#3F2BFF"/>
<rect x="1" y="40" width="19" height="2" rx="1" transform="rotate(-90 1 40)" fill="#3F2BFF"/>
<rect x="5" y="40" width="9" height="2" rx="1" transform="rotate(-90 5 40)" fill="#3F2BFF"/>
<rect x="11" y="40" width="9" height="2" rx="1" transform="rotate(-90 11 40)" fill="#3F2BFF"/>
<rect x="25" y="37" width="18" height="2" rx="1" transform="rotate(-90 25 37)" fill="#3F2BFF"/>
<rect x="29" y="37" width="18" height="2" rx="1" transform="rotate(-90 29 37)" fill="#3F2BFF"/>
<rect x="33" y="37" width="18" height="2" rx="1" transform="rotate(-90 33 37)" fill="#3F2BFF"/>
<rect x="15" y="40" width="24" height="2" rx="1" transform="rotate(-90 15 40)" fill="#3F2BFF"/>
<rect x="37" y="40" width="24" height="2" rx="1" transform="rotate(-90 37 40)" fill="#3F2BFF"/>
<path d="M36.5 1.5C35.3333 3.33333 31.6 7.4 26 9" stroke="#3F2BFF" stroke-width="2" stroke-linecap="round"/>
<path d="M19 6.00011C17.3333 4.33344 13 2.00011 9 6.00011" stroke="#3F2BFF" stroke-width="2" stroke-linecap="round"/>
<path d="M28 2.00006C26.1667 1.33339 21.8 1.20006 19 6.00006" stroke="#3F2BFF" stroke-width="2" stroke-linecap="round"/>
</svg>
